<?xml version="1.0" encoding="UTF-8"?>
<svg version="1.1" xmlns="http://www.w3.org/2000/svg" width="512" height="512">
<path d="M0 0 C1.01790619 0.00215515 2.03581238 0.0043103 3.08456421 0.00653076 C17.69363523 0.05620146 32.02575853 0.30709809 46.375 3.3125 C47.34985352 3.51117676 48.32470703 3.70985352 49.32910156 3.91455078 C63.34532358 6.84649318 76.89526028 10.89104537 90.41796875 15.578125 C91.28921387 15.87525391 92.16045898 16.17238281 93.05810547 16.47851562 C95.375 17.3125 95.375 17.3125 98.64453125 18.796875 C101.5367314 19.62688828 101.5367314 19.62688828 104.53125 17.75 C105.65717075 16.95328504 106.77126187 16.13967253 107.875 15.3125 C129.19479273 0.600712 155.45410566 -3.2344439 180.79052734 1.39550781 C205.47028254 6.75142375 227.71435054 21.92473086 241.55126953 43.11376953 C255.45528166 65.32744705 260.38186551 91.61670424 255.29614258 117.52856445 C252.11562513 130.90407726 246.05631826 142.98581036 238.375 154.3125 C237.10564663 156.28659769 237.10564663 156.28659769 237.99243164 158.45361328 C238.33653076 159.33774902 238.68062988 160.22188477 239.03515625 161.1328125 C239.41397949 162.13111084 239.79280273 163.12940918 240.18310547 164.15795898 C240.59705566 165.24020752 241.01100586 166.32245605 241.4375 167.4375 C250.44502503 191.73046893 256.38669071 217.40439388 256.61328125 243.40234375 C256.62302979 244.3365213 256.63277832 245.27069885 256.64282227 246.23318481 C256.81176995 266.61144367 256.63774756 286.29566663 252.375 306.3125 C252.18776367 307.23627441 252.00052734 308.16004883 251.80761719 309.11181641 C243.23962475 350.80494023 224.18493858 390.0735712 196.375 422.3125 C195.74078125 423.05757813 195.1065625 423.80265625 194.453125 424.5703125 C182.61371575 438.10762152 169.81813039 450.59846094 155.375 461.3125 C154.60800781 461.95960938 153.84101563 462.60671875 153.05078125 463.2734375 C149.03719287 466.63255076 145.87109709 468.04432614 140.6484375 468.59765625 C138.375 468.3125 138.375 468.3125 135.6796875 466.5078125 C132.58085002 465.00510153 132.58085002 465.00510153 130.24169922 466.00268555 C127.79178569 467.27456762 125.46235813 468.65661131 123.125 470.125 C121.51743025 471.09284856 119.90813724 472.05784245 118.296875 473.01953125 C117.23871582 473.67659058 117.23871582 473.67659058 116.15917969 474.34692383 C114.375 475.3125 114.375 475.3125 112.375 475.3125 C112.7153125 476.3334375 112.7153125 476.3334375 113.0625 477.375 C113.49841967 481.47264494 112.35812692 483.74287155 110.375 487.3125 C107.66513532 489.58292717 105.92316936 490.23085776 102.4375 490.75 C99.375 490.3125 99.375 490.3125 96.3125 488.25 C93.65006117 486.05113141 93.65006117 486.05113141 91.16796875 486.53125 C86.95971429 487.70838411 82.84828411 489.13979041 78.7265625 490.58398438 C75.80940821 491.5845683 73.48315148 492.3125 70.375 492.3125 C70.4575 493.364375 70.54 494.41625 70.625 495.5 C70.32935217 500.0086294 69.49852865 501.14760011 66.375 504.3125 C61.64595623 506.46393997 56.45472503 507.30809538 51.375 508.3125 C50.4787793 508.49731934 49.58255859 508.68213867 48.65917969 508.87255859 C18.82525445 514.77042697 -14.77665626 515.17619141 -44.625 509.3125 C-45.52057617 509.15152832 -46.41615234 508.99055664 -47.33886719 508.82470703 C-73.87507936 504.02383861 -100.34403084 495.05598419 -123.62890625 481.30859375 C-125.70058392 480.08924348 -125.70058392 480.08924348 -128.625 480.3125 C-130.10745759 481.71872104 -130.10745759 481.71872104 -131.4453125 483.64453125 C-131.97648682 484.35585205 -132.50766113 485.06717285 -133.05493164 485.80004883 C-133.6143042 486.56728271 -134.17367676 487.3345166 -134.75 488.125 C-135.91658182 489.68853577 -137.08455477 491.25103455 -138.25390625 492.8125 C-138.82641113 493.58078125 -139.39891602 494.3490625 -139.98876953 495.140625 C-143.38524484 499.64898734 -146.93217855 504.04338609 -150.625 508.3125 C-151.26695312 509.055 -151.90890625 509.7975 -152.5703125 510.5625 C-155.01729364 512.64662082 -156.25389833 512.9348239 -159.4375 513 C-160.24832031 513.04511719 -161.05914062 513.09023438 -161.89453125 513.13671875 C-168.74165552 511.06984719 -173.22744651 503.45286625 -177.25 497.875 C-181.39951754 492.2280708 -185.66941232 486.72109393 -190.125 481.3125 C-194.98059092 475.40718827 -199.62462008 469.38049801 -204.17797852 463.23999023 C-207.54888807 458.70834035 -211.01472197 454.26931438 -214.5625 449.875 C-220.02402635 443.10687122 -225.33887946 436.23637458 -230.5859375 429.30078125 C-232.40967574 426.89169471 -234.25711215 424.51164274 -236.1640625 422.16796875 C-253.38287165 400.54090778 -257.14020989 375.29400408 -255.625 348.3125 C-254.75690215 341.20236519 -253.10174168 334.31011587 -249.92578125 327.86328125 C-248.37281277 323.62409703 -248.73228561 320.60219179 -249.625 316.3125 C-249.76921387 315.5390625 -249.91342773 314.765625 -250.06201172 313.96875 C-250.70254531 310.57049415 -251.38536678 307.18132835 -252.07617188 303.79296875 C-255.18229563 288.0379532 -255.99822885 272.76877676 -255.9375 256.75 C-255.93534485 255.72926392 -255.9331897 254.70852783 -255.93096924 253.65686035 C-255.88130099 239.01420002 -255.57079688 224.70261101 -252.625 210.3125 C-252.33496094 208.81759033 -252.33496094 208.81759033 -252.0390625 207.29248047 C-242.60837882 159.56419789 -220.63885226 115.26845549 -186.625 80.3125 C-185.93245117 79.59416992 -185.23990234 78.87583984 -184.52636719 78.13574219 C-174.78805129 68.06884541 -165.02732714 58.47657992 -153.625 50.3125 C-153.08182129 49.9191748 -152.53864258 49.52584961 -151.97900391 49.12060547 C-130.95957235 33.97140947 -108.19691838 21.59948134 -83.625 13.3125 C-82.40248535 12.89943604 -82.40248535 12.89943604 -81.15527344 12.47802734 C-71.38442323 9.23994494 -61.50281263 6.70764527 -51.4375 4.5625 C-50.51283936 4.36374268 -49.58817871 4.16498535 -48.63549805 3.96020508 C-32.42888887 0.66750986 -16.49463046 -0.06280854 0 0 Z " fill="#010101" transform="translate(255.625,-0.3125)"/>
<path d="M0 0 C0.7541922 0.00149048 1.5083844 0.00298096 2.28543091 0.0045166 C15.68188091 0.05173745 28.71784823 1.05979094 41.9375 3.3125 C42.78199707 3.44640137 43.62649414 3.58030273 44.49658203 3.71826172 C58.82034785 6.01954834 72.2930884 10.45817024 85.9375 15.3125 C85.9375 19.03098883 84.88331106 20.19757071 82.8125 23.25 C77.27598264 31.78918504 73.04227226 40.25224998 70.125 50 C69.91794434 50.68852051 69.71088867 51.37704102 69.49755859 52.08642578 C63.02884955 74.96941589 66.95693233 99.18440598 76.9375 120.3125 C77.2675 121.3025 77.5975 122.2925 77.9375 123.3125 C76.81214844 123.82296875 76.81214844 123.82296875 75.6640625 124.34375 C58.72010865 132.36758709 48.11134108 144.02316342 40.9375 161.3125 C36.18352487 174.91696073 36.2344492 190.71744626 40.9375 204.3125 C41.26621094 205.29476562 41.59492188 206.27703125 41.93359375 207.2890625 C47.62954349 222.54395903 58.55899386 233.97435708 72.9375 241.3125 C78.00872271 243.4971369 83.08930818 245.20749956 88.5 246.3125 C100.41896539 248.83626669 108.95857288 254.57262801 116.25 264.4375 C125.83321347 280.19295266 126.88892161 299.87034804 127.4375 317.8125 C127.70035491 326.31840445 128.33262719 334.1505652 130.9375 342.3125 C131.288125 343.4675 131.63875 344.6225 132 345.8125 C138.07796705 364.36629415 149.90596049 378.05091093 166.9375 387.3125 C170.55349467 389.11838272 174.19293242 390.79174705 177.9375 392.3125 C175.65841967 397.48653097 171.64745287 400.94180905 167.6875 404.875 C166.88135254 405.6784082 166.07520508 406.48181641 165.24462891 407.30957031 C157.76683318 414.65882065 149.85741226 421.03900711 141.3671875 427.16796875 C140.64789063 427.69003906 139.92859375 428.21210938 139.1875 428.75 C138.59453125 429.16121094 138.0015625 429.57242187 137.390625 429.99609375 C135.56735421 431.64782024 134.77538077 432.99774858 133.9375 435.3125 C133.90772256 437.68551389 133.90772256 437.68551389 134.3125 440.0625 C134.42335938 440.86171875 134.53421875 441.6609375 134.6484375 442.484375 C134.79152344 443.38929688 134.79152344 443.38929688 134.9375 444.3125 C132.89778888 445.58656288 130.85584736 446.85679202 128.8125 448.125 C128.24273437 448.48142578 127.67296875 448.83785156 127.0859375 449.20507812 C117.22441227 455.3125 117.22441227 455.3125 113.9375 455.3125 C114.2778125 456.3334375 114.2778125 456.3334375 114.625 457.375 C115.06091967 461.47264494 113.92062692 463.74287155 111.9375 467.3125 C109.22763532 469.58292717 107.48566936 470.23085776 104 470.75 C100.9375 470.3125 100.9375 470.3125 97.875 468.25 C95.21203036 466.05087591 95.21203036 466.05087591 92.7265625 466.53125 C88.54674813 467.70206635 84.46556137 469.1331879 80.37695312 470.58398438 C76.99427248 471.75007429 74.56540984 472.3125 70.9375 472.3125 C70.69 471.69375 70.4425 471.075 70.1875 470.4375 C68.66483595 467.84897111 67.72090731 467.37009863 64.9375 466.3125 C56.22751585 465.90358056 47.360883 468.05848367 38.88891602 469.85205078 C26.81935595 472.33195463 14.66024199 472.51648829 2.375 472.5 C1.67872498 472.50006042 0.98244995 472.50012085 0.26507568 472.50018311 C-14.68112898 472.48179067 -29.46169927 471.7193535 -44.0625 468.3125 C-42.61094106 464.97671487 -40.78324062 462.78751397 -38.2109375 460.23046875 C-37.05658203 459.07901367 -37.05658203 459.07901367 -35.87890625 457.90429688 C-35.07324219 457.11087891 -34.26757812 456.31746094 -33.4375 455.5 C-32.65503906 454.71818359 -31.87257812 453.93636719 -31.06640625 453.13085938 C-27.49569462 449.58679485 -23.8996227 446.12149934 -20.08203125 442.84375 C-15.25963208 438.69079494 -10.83732015 434.1577593 -6.375 429.625 C-4.72768018 427.95204096 -3.07801414 426.28138827 -1.42578125 424.61328125 C-0.70688721 423.88278564 0.01200684 423.15229004 0.75268555 422.3996582 C3.04098378 420.21364171 5.4647496 418.2847794 7.9375 416.3125 C19.46870101 403.33480558 25.82663833 388.2468865 27.06054688 371.03710938 C27.13208984 370.21662109 27.20363281 369.39613281 27.27734375 368.55078125 C27.33269287 367.80868408 27.38804199 367.06658691 27.44506836 366.30200195 C28.05767443 363.82697622 28.95165743 362.87726706 30.9375 361.3125 C33.42578125 360.72265625 33.42578125 360.72265625 36.25 360.375 C41.22747522 359.60467645 43.98723091 358.35116853 47.9375 355.3125 C48.5975 355.3125 49.2575 355.3125 49.9375 355.3125 C50.22440201 354.73315201 50.51130402 354.15380402 50.80690002 353.55690002 C51.5074973 352.16611586 52.2305107 350.78609038 52.98789978 349.42539978 C56.46335482 342.65876205 56.53457643 336.3780306 56.50390625 328.87890625 C56.51320412 326.96923317 56.51320412 326.96923317 56.52268982 325.02098083 C56.52976871 322.3385352 56.52861646 319.65760284 56.51391602 316.9753418 C56.49673905 313.56474916 56.5202357 310.15584324 56.55540562 306.74543858 C56.58284496 303.45657695 56.57263258 300.16784986 56.56640625 296.87890625 C56.57966446 295.66819962 56.59292267 294.45749298 56.60658264 293.21009827 C56.5073912 284.09735794 54.63700735 277.17797656 48.23828125 270.4921875 C44.02816331 267.71201495 39.69906397 265.55240274 35.125 263.4375 C33.65643555 262.74346069 33.65643555 262.74346069 32.15820312 262.03540039 C26.72083661 259.48172634 21.25565865 256.9989727 15.76350403 254.565979 C12.86841374 253.2832533 9.97715314 251.99197594 7.08535767 250.70184326 C5.00325209 249.77913865 2.91456012 248.87283768 0.82495117 247.96728516 C-8.2312147 243.97719532 -16.25914264 239.14765272 -24.36024475 233.47848511 C-36.31389279 225.2906557 -49.37073264 218.85108546 -64.125 219.5 C-67.23828125 219.4140625 -67.23828125 219.4140625 -70.0625 218.3125 C-73.92478091 213.70309878 -75.95175178 207.86803675 -78.0625 202.3125 C-78.3925 201.6525 -78.7225 200.9925 -79.0625 200.3125 C-79.92891213 194.34663362 -79.12051022 189.9464548 -75.5859375 185.03515625 C-70.23421002 178.98358749 -64.19105678 178.80878122 -56.55859375 177.84765625 C-45.86384195 176.21058251 -37.96652601 170.86618888 -31.51806641 162.24853516 C-28.66797517 158.22583496 -25.93798591 154.12745505 -23.21875 150.015625 C-20.64839109 146.13846101 -17.94520428 142.46267749 -15.0625 138.8125 C-10.33996129 132.79780087 -6.04076099 126.53732905 -1.75805664 120.20385742 C1.24171396 115.77153418 4.29745976 111.41294494 7.5 107.125 C15.02344132 96.90327804 17.0033923 87.88011381 15.9375 75.3125 C12.38739644 61.14526429 2.44978098 53.6132658 -9.00097656 45.75048828 C-12.80563896 43.09659658 -16.5226275 40.32334728 -20.25 37.5625 C-21.86716406 36.36845784 -23.48435185 35.1744478 -25.1015625 33.98046875 C-27.60287637 32.13147773 -30.10379464 30.28195339 -32.60449219 28.43212891 C-45.71608415 18.70873628 -45.71608415 18.70873628 -59.0625 9.3125 C-58.7325 8.6525 -58.4025 7.9925 -58.0625 7.3125 C-56.015625 6.65820312 -56.015625 6.65820312 -53.3125 6.09375 C-52.30960938 5.88363281 -51.30671875 5.67351563 -50.2734375 5.45703125 C-49.21382812 5.24433594 -48.15421875 5.03164063 -47.0625 4.8125 C-46.06476563 4.59980469 -45.06703125 4.38710938 -44.0390625 4.16796875 C-29.40927001 1.16462344 -14.91357564 -0.07386964 0 0 Z " fill="#65DFF5" transform="translate(254.0625,19.6875)"/>
<path d="M0 0 C2.78129749 1.81167792 5.34909655 3.862752 7.9375 5.9375 C9.46866415 7.13719019 11.00123395 8.33508839 12.53515625 9.53125 C13.29328613 10.12421875 14.05141602 10.7171875 14.83251953 11.328125 C17.79215038 13.61102115 20.81879955 15.78648858 23.875 17.9375 C31.82920546 23.55731908 39.65196477 29.3518243 47.48291016 35.14160156 C50.07306191 37.05394251 52.66685459 38.96124657 55.26171875 40.8671875 C56.11805908 41.49657227 56.97439941 42.12595703 57.85668945 42.77441406 C59.49401822 43.97760864 61.13184908 45.18012037 62.77026367 46.38183594 C74.97850393 55.3610899 74.97850393 55.3610899 77 61 C78.27608663 70.73671583 73.62375497 76.78422065 68.0625 84.3125 C66.88590244 85.92258087 65.71013988 87.53327221 64.53515625 89.14453125 C63.94234863 89.95615723 63.34954102 90.7677832 62.73876953 91.60400391 C60.12193602 95.20995787 57.55958512 98.85329767 55 102.5 C49.19559627 110.74882068 43.33178012 118.95300169 37.38330078 127.09863281 C36.20207859 128.72224001 35.03508944 130.35618621 33.87109375 131.9921875 C30.56922291 136.49809625 27.50156488 140.34327876 22 142 C20.10861071 142.19518698 18.21123027 142.33613549 16.3125 142.4375 C6.46202762 143.00390216 -1.8820498 146.80558017 -9.0234375 153.609375 C-15.03634811 160.8819072 -18.14332854 169.04577167 -18.125 178.375 C-18.12757813 179.68210938 -18.13015625 180.98921875 -18.1328125 182.3359375 C-18.0224678 185.38015313 -17.71706674 188.05205898 -17 191 C-22.44752133 190.44560624 -27.26854562 189.45778883 -32.5 187.75 C-33.90608124 187.29375042 -35.31233632 186.83803627 -36.71875 186.3828125 C-37.42902344 186.15110352 -38.13929688 185.91939453 -38.87109375 185.68066406 C-40.91707807 185.0265122 -42.96998476 184.40874713 -45.03125 183.8046875 C-63.17872556 178.45342305 -78.97913606 171.11171742 -92.75 157.8125 C-93.24459717 157.34505371 -93.73919434 156.87760742 -94.2487793 156.39599609 C-103.5750129 146.97013962 -109.74038197 134.28660753 -115.62475586 122.54663086 C-116.70734401 120.39811741 -117.81714363 118.26500701 -118.92773438 116.13085938 C-119.6240816 114.75345511 -120.31880795 113.37522992 -121.01171875 111.99609375 C-121.3437883 111.365858 -121.67585785 110.73562225 -122.01799011 110.08628845 C-123.48090696 107.09905861 -124.13244568 105.5098776 -123.28198242 102.23583984 C-122.85892822 101.4980127 -122.43587402 100.76018555 -122 100 C-121.49726562 99.08605469 -120.99453125 98.17210937 -120.4765625 97.23046875 C-95.87177089 56.79348001 -60.44818032 25.30753335 -17.82763672 4.88134766 C-16.11753084 4.05667731 -14.4195678 3.20695833 -12.72265625 2.35546875 C-11.76230469 1.88753906 -10.80195313 1.41960938 -9.8125 0.9375 C-8.99394531 0.53402344 -8.17539063 0.13054688 -7.33203125 -0.28515625 C-4.26850555 -1.22422694 -3.0317922 -1.11605104 0 0 Z " fill="#CAE457" transform="translate(174,37)"/>
<path d="M0 0 C16.21312302 12.74840084 27.60705146 30.33999212 30.9765625 50.8671875 C31.25669526 54.12339739 31.31132027 57.35006532 31.2890625 60.6171875 C31.28342285 61.49334717 31.2777832 62.36950684 31.27197266 63.2722168 C30.82164299 87.50307373 18.63412442 105.07642782 3.94140625 123.19140625 C0.86203763 126.9928883 -2.12274497 130.85904855 -5.09570312 134.74438477 C-13.34230715 145.51675554 -21.70214821 156.20228129 -30.09667969 166.85961914 C-34.78830237 172.82415591 -39.40970363 178.84231159 -44.0234375 184.8671875 C-47.85391583 183.59036139 -49.22630963 181.30864314 -51.5234375 178.1796875 C-52.42368754 176.98117581 -53.32475636 175.78327877 -54.2265625 174.5859375 C-54.68998047 173.9671875 -55.15339844 173.3484375 -55.63085938 172.7109375 C-57.80355543 169.83432449 -60.03783941 167.00750787 -62.2734375 164.1796875 C-68.2910632 156.54246881 -74.25588915 148.86452407 -80.22070312 141.18603516 C-82.58821584 138.14071612 -84.96011688 135.09882974 -87.33227539 132.05712891 C-89.08115955 129.8108244 -90.82393157 127.55987201 -92.56640625 125.30859375 C-94.85427754 122.35614724 -97.17112995 119.43032244 -99.51171875 116.51953125 C-115.38885745 96.59834396 -123.22906132 76.65526247 -121.0234375 50.8671875 C-118.62514056 32.18878462 -107.68735056 14.805474 -93.53515625 2.77734375 C-65.64985003 -18.42936658 -28.98468706 -20.44656219 0 0 Z " fill="#D6717D" transform="translate(461.0234375,34.1328125)"/>
<path d="M0 0 C15.32721337 12.26549598 25.74497624 29.61420748 28.9375 49.0625 C29.19243381 52.17374646 29.22533396 55.25466038 29.1875 58.375 C29.17928223 59.20676758 29.17106445 60.03853516 29.16259766 60.89550781 C28.7139842 85.73808104 16.71765791 102.82180393 1.81347656 121.68212891 C-1.2288653 125.54246639 -4.23745587 129.42889883 -7.25 133.3125 C-11.77217629 139.13082162 -16.31250356 144.93435561 -20.87084961 150.72436523 C-26.393924 157.74535975 -31.8696784 164.80323034 -37.34960938 171.85791016 C-40.25238754 175.59395446 -43.15748957 179.32819132 -46.0625 183.0625 C-49.05868194 181.75505345 -50.75232107 180.54497286 -52.65625 177.89453125 C-53.12281006 177.25652588 -53.58937012 176.61852051 -54.07006836 175.96118164 C-54.5625708 175.2727417 -55.05507324 174.58430176 -55.5625 173.875 C-56.63463974 172.40993464 -57.70891185 170.94642771 -58.78515625 169.484375 C-59.60330811 168.3715918 -59.60330811 168.3715918 -60.43798828 167.23632812 C-62.88014597 163.96837321 -65.43204286 160.7944491 -68 157.625 C-72.84345535 151.63019247 -77.5427565 145.53764257 -82.20458984 139.40087891 C-85.77709046 134.71043842 -89.42242821 130.08820659 -93.125 125.5 C-95.10895882 123.02463487 -97.08650341 120.54422319 -99.0625 118.0625 C-99.834729 117.09812012 -99.834729 117.09812012 -100.62255859 116.11425781 C-110.781387 103.34729415 -119.14992981 90.38252139 -122.0625 74.0625 C-122.33320312 72.68771484 -122.33320312 72.68771484 -122.609375 71.28515625 C-125.46392439 50.98340413 -120.81579517 30.93709987 -108.44921875 14.4453125 C-103.11095852 7.72959047 -97.11621163 1.96747332 -90.0625 -2.9375 C-89.28519531 -3.47890625 -88.50789063 -4.0203125 -87.70703125 -4.578125 C-80.95057806 -8.94281581 -73.70900127 -11.53948481 -66.0625 -13.9375 C-65.29292969 -14.18628906 -64.52335937 -14.43507813 -63.73046875 -14.69140625 C-42.06468539 -20.61532025 -17.37422726 -13.21657646 0 0 Z " fill="#FDCB68" transform="translate(143.0625,301.9375)"/>
<path d="M0 0 C2.01790855 2.31269338 3.75091222 4.55795516 5.5 7.0625 C6.56810207 8.54066225 7.63847303 10.01718729 8.7109375 11.4921875 C9.25588867 12.2459668 9.80083984 12.99974609 10.36230469 13.77636719 C12.85344185 17.15878777 15.48020163 20.42470999 18.125 23.6875 C22.2486573 28.79761126 26.30118036 33.95247258 30.29052734 39.16796875 C33.69111678 43.61021669 37.14011618 48.01259773 40.60473633 52.4050293 C43.27393047 55.79254725 45.92620824 59.19226125 48.5625 62.60546875 C49.48047363 63.79233276 49.48047363 63.79233276 50.41699219 65.00317383 C51.60202673 66.53655297 52.78510658 68.07144563 53.96582031 69.6081543 C60.76922487 79.755924 60.76922487 79.755924 70.6875 85.4375 C77.69640796 84.51179518 81.48985369 78.52244391 85.5625 73.25 C86.88507351 71.49342891 88.20140646 69.7323164 89.51660156 67.97021484 C92.279641 64.30041099 95.11274345 60.6848664 97.9375 57.0625 C98.53763916 56.29131836 99.13777832 55.52013672 99.75610352 54.72558594 C103.32524038 50.14077028 106.90660169 45.56581617 110.5 41 C114.88549249 35.42485684 119.26063665 29.84170208 123.625 24.25 C124.24181641 23.46238281 124.85863281 22.67476562 125.49414062 21.86328125 C126.06583984 21.12980469 126.63753906 20.39632812 127.2265625 19.640625 C127.73783691 18.98610352 128.24911133 18.33158203 128.77587891 17.65722656 C130.06785822 16.00736605 130.06785822 16.00736605 131 14 C131.66 14 132.32 14 133 14 C146.30573456 50.20808299 151.37314025 90.76115851 145 129 C144.78942792 130.45801176 144.58119479 131.91636276 144.375 133.375 C142.78650268 144.18538081 140.24944719 154.57404858 137 165 C136.7632959 165.77005371 136.5265918 166.54010742 136.28271484 167.33349609 C129.3466425 189.51519279 118.80899137 210.62536999 106 230 C105.27695679 231.09671021 105.27695679 231.09671021 104.53930664 232.21557617 C103 234 103 234 99.875 234.4375 C87.31780291 233.01975194 76.23389498 226.34847912 68.12109375 216.78515625 C57.73659288 202.94663133 55.74119875 187.64722536 55.375 170.9375 C55.33673804 169.48500473 55.29768181 168.03253016 55.2578125 166.58007812 C55.16271895 163.05357688 55.07836886 159.52691721 55 156 C55.75925781 155.89042969 56.51851563 155.78085937 57.30078125 155.66796875 C58.29464844 155.50941406 59.28851563 155.35085938 60.3125 155.1875 C61.29863281 155.03667969 62.28476562 154.88585937 63.30078125 154.73046875 C66.15741758 153.95739929 67.22881053 153.32104475 69 151 C69.75851613 148.91105198 69.75851613 148.91105198 70 146.625 C70.12375 145.87476563 70.2475 145.12453125 70.375 144.3515625 C69.77435878 140.58504151 67.98470144 139.25900933 65 137 C62.2042814 136.47562169 59.97543325 136.21151091 57.1875 136.1875 C56.49462891 136.16236328 55.80175781 136.13722656 55.08789062 136.11132812 C53.39252878 136.05286737 51.69620713 136.02346953 50 136 C49.814375 134.80375 49.62875 133.6075 49.4375 132.375 C46.05129724 117.60095098 36.43030977 104.73958188 23.984375 96.2265625 C23.32953125 95.82179688 22.6746875 95.41703125 22 95 C21.32453125 94.57460937 20.6490625 94.14921875 19.953125 93.7109375 C14.37130788 90.57357133 8.66905693 89.06716259 2.5 87.5625 C-4.84949519 85.76144638 -10.87631649 83.59896069 -17 79 C-18.051875 78.278125 -19.10375 77.55625 -20.1875 76.8125 C-29.24364545 67.75635455 -34.09421769 56.29882853 -34.5 43.5625 C-34.09454626 30.75800945 -29.89596865 18.78179698 -20.640625 9.6796875 C-14.57178824 4.57206401 -8.12742791 0 0 0 Z " fill="#C9E357" transform="translate(345,160)"/>
<path d="M0 0 C14.5076851 9.95155259 30.45777862 16.67421334 46.55078125 23.62109375 C45.55078125 26.62109375 45.55078125 26.62109375 44.05078125 27.87109375 C41.69062149 30.62461347 41.6733577 33.06637667 41.55078125 36.62109375 C43.18239503 40.48544217 44.72229264 42.06282871 48.55078125 43.62109375 C50.8647079 43.98207119 50.8647079 43.98207119 53.31640625 44.03515625 C54.20585937 44.07382812 55.0953125 44.1125 56.01171875 44.15234375 C56.93210937 44.18328125 57.8525 44.21421875 58.80078125 44.24609375 C59.73664063 44.28476562 60.6725 44.3234375 61.63671875 44.36328125 C63.94121179 44.45734219 66.24570138 44.54298774 68.55078125 44.62109375 C68.60012279 50.70832121 68.63647292 56.79543295 68.66064453 62.8828125 C68.67071837 64.95477322 68.68437791 67.02671968 68.70166016 69.09863281 C68.72584789 72.07230139 68.73725033 75.04578245 68.74609375 78.01953125 C68.75641632 78.94978119 68.76673889 79.88003113 68.77737427 80.83847046 C68.77752533 81.69921173 68.77767639 82.559953 68.77783203 83.44677734 C68.78227325 84.2062265 68.78671448 84.96567566 68.79129028 85.74813843 C68.55078125 87.62109375 68.55078125 87.62109375 66.55078125 89.62109375 C64.44921875 90.078125 64.44921875 90.078125 61.92578125 90.43359375 C53.79327472 91.94743696 48.25392082 95.90232293 43.55078125 102.62109375 C40.84749773 107.25529407 40.40490699 110.76678696 40.17578125 116.12109375 C39.13660499 134.90620313 29.70828374 146.98842901 16.78100586 159.67211914 C15.11240134 161.30945717 13.45480282 162.9573203 11.79882812 164.60742188 C6.80082736 169.56847549 1.7472134 174.41530903 -3.60571289 178.99584961 C-7.04119109 182.02458466 -10.23290222 185.30071448 -13.44921875 188.55859375 C-14.12855469 189.24244141 -14.80789062 189.92628906 -15.5078125 190.63085938 C-17.15730234 192.29196534 -18.80438555 193.95537888 -20.44921875 195.62109375 C-23.68908932 194.11701485 -25.04358354 193.20709509 -26.57421875 189.93359375 C-26.88617188 189.29035156 -27.198125 188.64710938 -27.51953125 187.984375 C-30.08325338 181.46735025 -30.74070452 175.93132203 -30.72045898 168.9765625 C-30.72568573 168.03403122 -30.73091248 167.09149994 -30.73629761 166.1204071 C-30.74650411 164.08197688 -30.75231214 162.04352084 -30.754179 160.00506592 C-30.75786116 156.76578812 -30.77464168 153.52681147 -30.79493713 150.28759766 C-30.85015012 141.08029825 -30.88090182 131.87295397 -30.90551758 122.66552734 C-30.92150798 117.02281117 -30.95185116 111.38030693 -30.99028206 105.73770142 C-31.0018373 103.60098544 -31.00786157 101.46423135 -31.00796318 99.32748413 C-31.00989358 69.52039277 -38.90982883 43.68030879 -60.01171875 21.74609375 C-63.88818282 18.04583259 -68.15841662 14.82216835 -72.44921875 11.62109375 C-67.51861681 -0.1694761 -59.06745372 -6.55161144 -47.44921875 -11.37890625 C-30.32207979 -18.10742513 -13.95552164 -9.60951144 0 0 Z " fill="#CAE357" transform="translate(222.44921875,271.37890625)"/>
<path d="M0 0 C0.66 0 1.32 0 2 0 C2.47308594 1.05316406 2.94617188 2.10632813 3.43359375 3.19140625 C16.97085082 32.91436326 35.90119422 56.94200262 67.30517578 68.98217773 C75.441525 71.95348082 83.69815197 74.53430142 92 77 C95.45629238 78.07208676 98.90700039 79.16199188 102.3581543 80.25048828 C106.55521269 81.56765307 110.76633651 82.80757281 115 84 C113.88273561 87.35179318 113.04550033 88.01707405 110.375 90.1875 C103.93142122 95.6726253 98.91204909 101.48886576 95 109 C90.61890845 108.05318469 86.25303095 107.08594005 81.921875 105.9296875 C56.56498563 99.36644297 31.95409768 103.10675245 9.3125 116.06640625 C0.97003254 121.07188673 -6.06890629 127.20854371 -13 134 C-15.57825682 131.42174318 -15.54217143 129.8354574 -16.0625 126.25 C-16.21847656 125.22390625 -16.37445312 124.1978125 -16.53515625 123.140625 C-21.78304973 80.42782354 -15.43159199 39.94648546 0 0 Z " fill="#65DEF5" transform="translate(38,164)"/>
<path d="M0 0 C9.6088894 7.1008064 16.13159421 15.88017397 19.3671875 27.390625 C20.58410334 41.45590807 18.72783764 54.24501718 9.3671875 65.390625 C4.3000557 70.66457851 -0.88251947 74.58048099 -7.6328125 77.390625 C-8.9321875 77.9784375 -8.9321875 77.9784375 -10.2578125 78.578125 C-21.0393704 82.2665527 -32.40426934 81.07524233 -42.6328125 76.390625 C-55.12430295 69.40263179 -61.85414494 59.97041267 -66.23828125 46.53515625 C-68.46967872 34.40607493 -66.67216782 23.62393791 -60.24609375 13.125 C-46.35591056 -6.81597533 -20.98719435 -12.82896747 0 0 Z " fill="#020101" transform="translate(439.6328125,60.609375)"/>
<path d="M0 0 C7.8748443 7.16925825 14.51336538 16.66857026 15.23828125 27.58984375 C15.62745283 42.73598087 12.14277119 54.24555547 1.875 65.6875 C-6.84841817 74.0232107 -18.73067581 77.5388387 -30.52734375 77.30859375 C-43.99217985 76.11205601 -54.58510371 69.72468065 -63.2421875 59.54296875 C-70.65646164 48.81698549 -72.27708924 36.69107431 -71 24 C-67.96367428 12.02483604 -60.08218825 1.93548814 -49.58203125 -4.4765625 C-33.15876978 -13.18471044 -14.84582867 -11.48637326 0 0 Z " fill="#020201" transform="translate(124,330)"/>
<path d="M0 0 C6.02912197 3.31886998 10.62666926 8.50500777 12.8125 15.0625 C13.51743059 22.75895527 13.22374261 29.52348155 8.8125 36.0625 C4.42697021 41.01250392 -0.87321867 44.40661264 -7.5 45.4140625 C-14.34806273 45.82066622 -19.56225681 43.92258067 -25.1875 40.0625 C-30.23669917 35.57664124 -32.8221903 31.09803062 -33.4375 24.30078125 C-33.74527824 16.63517945 -32.88705976 11.08256618 -27.609375 5.34765625 C-19.55979975 -2.06738041 -10.16208974 -4.46328866 0 0 Z " fill="#FBFBFB" transform="translate(106.1875,341.9375)"/>
<path d="M0 0 C6.31159497 3.50313369 10.5002981 8.03706907 12.75 14.9375 C13.65041101 22.25452417 13.44588451 28.70863303 9.375 35 C5.03967132 40.16904574 -0.6591571 44.33582759 -7.42578125 45.22265625 C-14.36456851 45.64351582 -19.52066498 43.82162214 -25.25 39.9375 C-27.38484566 38.03248222 -28.61637137 36.363191 -30.25 33.9375 C-30.848125 33.091875 -31.44625 32.24625 -32.0625 31.375 C-34.34177982 24.77708472 -34.57848533 16.96733356 -31.6875 10.5 C-24.93438482 -0.77104434 -12.04692746 -5.48905116 0 0 Z " fill="#FBFBFB" transform="translate(426.25,76.0625)"/>
<path d="M0 0 C0.33 0 0.66 0 1 0 C1.01458252 0.84594727 1.02916504 1.69189453 1.04418945 2.56347656 C1.10596948 5.76206659 1.18024584 8.96007774 1.26245117 12.15820312 C1.29530044 13.53114244 1.32345067 14.90420387 1.34643555 16.27734375 C1.55204455 28.24641236 2.90829653 38.8510466 8.5625 49.5 C9.16191406 50.6446875 9.76132813 51.789375 10.37890625 52.96875 C10.91386719 53.9690625 11.44882813 54.969375 12 56 C12.66987228 57.3317257 13.33722531 58.66472777 14 60 C6.14121589 58.08801533 -1.11617497 55.47086079 -8.5 52.1875 C-9.45519531 51.77435547 -10.41039062 51.36121094 -11.39453125 50.93554688 C-18.13652749 47.9750898 -24.58917513 44.61898882 -31 41 C-30.63213379 40.51023682 -30.26426758 40.02047363 -29.88525391 39.51586914 C-27.3197492 36.09805493 -24.75795137 32.67771567 -22.2109375 29.24609375 C-16.53131914 21.61041602 -10.74799742 14.08263838 -4.74560547 6.69702148 C-2.12035956 3.51763269 -2.12035956 3.51763269 0 0 Z " fill="#64DBF2" transform="translate(171,421)"/>
<path d="M0 0 C2.75329021 1.79562405 4.52627461 3.05254922 6 6 C6.55921083 10.05427851 6.89487908 12.57669084 4.68359375 16.09375 C2.88478561 18.18632322 0.99538452 20.0947802 -1 22 C-1.56332031 22.60585938 -2.12664062 23.21171875 -2.70703125 23.8359375 C-5.80889369 26.93053562 -8.19458146 28.42725428 -12.625 28.75 C-16.33340231 28.47741658 -17.03061773 27.97438109 -20.0625 25.4375 C-22.37655196 21.33192394 -22.95746502 19.6277476 -22 15 C-20.00820048 11.96430555 -17.59972521 9.52094565 -15 7 C-14.34 6.319375 -13.68 5.63875 -13 4.9375 C-8.81982347 0.88795399 -6.07981505 -1.26184841 0 0 Z " fill="#020201" transform="translate(241,312)"/>
<path d="M0 0 C2.92937654 1.81310142 5.43647949 3.87295899 7 7 C7.14943856 9.26744274 7.22144902 11.5403175 7.25 13.8125 C7.27578125 15.03582031 7.3015625 16.25914062 7.328125 17.51953125 C6.87969681 22.27607308 5.38992423 24.84172981 1.75 27.875 C-1.96369801 29.39424009 -4.15654948 29.04821378 -8 28 C-10.86942113 25.73466753 -11.83907612 24.48277163 -13 21 C-14.17814961 7.45127953 -14.17814961 7.45127953 -10.625 3.1875 C-6.88050788 0.0670899 -4.88427012 -0.56356963 0 0 Z " fill="#030401" transform="translate(448,267)"/>
<path d="M0 0 C0.69867188 -0.01933594 1.39734375 -0.03867187 2.1171875 -0.05859375 C6.03448382 -0.02163812 7.84126985 0.49924176 10.93359375 2.94921875 C13.55199556 6.33977686 14.07503618 8.34793749 14 12.625 C11.94039207 16.66793408 10.22734828 18.99795382 6 20.625 C0.76858869 21.25160358 -5.0063741 21.77878955 -9.625 18.875 C-13.28429423 15.4083002 -13.28429423 15.4083002 -14 12.625 C-13.92420327 8.45618009 -13.49509508 6.27040858 -10.94140625 2.94140625 C-7.28023266 0.05817127 -4.47573435 -0.12386719 0 0 Z " fill="#020607" transform="translate(344,295.375)"/>
<path d="M0 0 C3.36290526 1.90077254 4.68839982 3.41574966 6.5 6.8125 C7.17775937 11.13321596 6.18871838 13.25799761 4 17 C1.29013532 19.27042717 -0.45183064 19.91835776 -3.9375 20.4375 C-8.08951349 19.84435522 -9.98053776 18.94924219 -13 16 C-14.08064169 12.60941522 -14.36066302 9.53793251 -14 6 C-10.51951155 0.11917469 -6.62575992 -0.90293465 0 0 Z " fill="#000102" transform="translate(362,470)"/>
</svg>
